<?xml version="1.0" standalone="no"?>
<!DOCTYPE svg PUBLIC "-//W3C//DTD SVG 20010904//EN"
 "http://www.w3.org/TR/2001/REC-SVG-20010904/DTD/svg10.dtd">
<svg version="1.0" xmlns="http://www.w3.org/2000/svg"
 width="300.000000pt" height="71.000000pt" viewBox="0 0 300.000000 71.000000"
 preserveAspectRatio="xMidYMid meet">
<metadata>
Created by potrace 1.10, written by Peter Selinger 2001-2011
</metadata>
<g transform="translate(0.000000,71.000000) scale(0.100000,-0.100000)"
fill="#000000" stroke="none">
<path d="M2660 601 c0 -6 18 -11 43 -11 57 0 116 -42 146 -102 25 -53 28 -145
6 -188 -9 -17 -11 -30 -6 -30 16 0 51 98 51 146 0 64 -33 129 -81 161 -42 27
-159 46 -159 24z"/>
<path d="M2864 560 c40 -48 56 -91 56 -146 0 -100 -52 -187 -131 -218 -52 -21
-45 -32 9 -15 154 46 208 242 100 359 -39 43 -65 58 -34 20z"/>
<path d="M2625 568 c-36 -13 -73 -41 -94 -70 -11 -16 -3 -12 26 11 95 76 236
33 278 -85 13 -36 14 -37 15 -11 1 63 -53 133 -119 156 -41 13 -66 13 -106 -1z"/>
<path d="M2603 509 c-45 -22 -63 -44 -81 -98 -15 -42 -7 -55 8 -15 38 101 165
133 246 62 43 -38 45 -21 2 21 -29 29 -81 51 -118 51 -8 0 -34 -9 -57 -21z"/>
<path d="M2247 453 c-15 -14 -7 -43 12 -43 26 0 36 17 21 35 -14 16 -23 19
-33 8z"/>
<path d="M80 311 l0 -138 24 4 c24 5 25 8 28 104 3 98 1 108 -18 89 -6 -6 -10
-1 -12 15 -3 44 42 44 51 0 2 -14 0 -22 -4 -19 -15 9 -10 -13 23 -101 43 -114
56 -113 99 5 17 50 35 92 38 94 3 2 4 -38 3 -90 l-4 -94 31 0 31 0 0 136 0
135 -41 -3 -41 -3 -32 -89 -32 -89 -33 91 -33 92 -39 0 -39 0 0 -139z m260 80
c0 -27 -2 -28 -24 -18 -19 9 -22 14 -12 29 17 28 36 22 36 -11z m-103 -145
c-5 -16 -24 -18 -30 -4 -3 9 3 14 14 14 11 0 18 -5 16 -10z"/>
<path d="M1560 448 c0 -2 -2 -63 -3 -136 l-2 -132 93 0 c75 0 92 3 92 15 0 12
-14 15 -70 15 l-70 0 0 45 0 45 55 0 c42 0 55 3 55 15 0 12 -13 15 -55 15
l-55 0 0 43 0 42 65 -3 c60 -3 65 -2 65 17 0 20 -6 21 -85 21 -47 0 -85 -1
-85 -2z"/>
<path d="M448 364 c-16 -8 -28 -19 -28 -25 0 -16 31 -23 51 -11 27 17 47 15
59 -7 14 -28 15 -28 -36 -29 -54 0 -84 -23 -84 -63 0 -50 62 -75 108 -43 12 8
22 10 22 5 0 -6 11 -11 25 -11 24 0 25 2 25 75 0 67 -3 79 -25 100 -28 29 -75
32 -117 9z m92 -113 c0 -16 -31 -41 -50 -41 -22 0 -34 15 -26 35 6 17 76 21
76 6z"/>
<path d="M640 374 c-1 -2 -1 -48 -1 -101 l-1 -96 26 -2 c25 -1 26 1 26 65 0
36 4 70 8 76 11 17 35 22 55 12 14 -7 17 -22 17 -78 0 -70 0 -70 28 -70 l27 0
-3 85 c-3 73 -6 87 -25 100 -28 19 -57 19 -85 -1 -18 -13 -22 -13 -22 -1 0 9
-10 15 -25 15 -14 0 -25 -2 -25 -4z"/>
<path d="M904 370 c-33 -13 -40 -31 -19 -46 16 -12 21 -12 35 1 23 21 47 19
60 -5 6 -11 9 -20 8 -21 -2 0 -22 -2 -46 -4 -52 -4 -82 -28 -82 -66 0 -31 31
-59 65 -59 11 0 31 7 43 16 12 8 22 10 22 5 0 -6 11 -11 25 -11 25 0 25 1 25
79 0 74 -2 81 -26 100 -28 22 -73 26 -110 11z m80 -133 c-8 -21 -52 -33 -66
-19 -17 17 -2 40 29 44 34 4 46 -3 37 -25z"/>
<path d="M1117 369 c-11 -6 -25 -26 -33 -45 -18 -42 -4 -108 26 -124 31 -16
88 -12 99 7 13 24 20 14 14 -20 -8 -39 -44 -55 -76 -34 -24 16 -67 13 -67 -4
0 -16 64 -49 93 -49 35 0 83 24 97 49 5 11 10 67 10 125 l0 105 -27 -4 c-16
-1 -27 -8 -25 -14 3 -15 -7 -14 -24 4 -18 17 -61 19 -87 4z m85 -41 c20 -16
24 -35 15 -70 -6 -22 -13 -28 -35 -28 -15 0 -33 5 -40 12 -17 17 -15 64 4 82
19 19 35 20 56 4z m45 -110 c-3 -8 -6 -5 -6 6 -1 11 2 17 5 13 3 -3 4 -12 1
-19z"/>
<path d="M1348 351 c-78 -69 -14 -194 91 -177 18 3 42 13 53 23 18 16 18 18 2
30 -13 10 -21 9 -38 -2 -27 -19 -51 -19 -70 1 -32 31 -19 39 54 36 l70 -4 0
34 c-1 82 -97 117 -162 59z m100 -23 c23 -23 12 -33 -33 -33 -25 0 -45 5 -45
11 0 17 23 34 45 34 12 0 26 -5 33 -12z m-88 -48 c0 -5 -4 -10 -10 -10 -5 0
-10 5 -10 10 0 6 5 10 10 10 6 0 10 -4 10 -10z"/>
<path d="M1780 281 c0 -94 1 -101 20 -101 18 0 20 7 20 75 0 72 1 76 26 85 17
7 32 7 45 0 16 -9 19 -22 19 -85 0 -68 2 -75 20 -75 18 0 20 7 20 80 0 67 -3
83 -20 100 -24 24 -72 26 -90 5 -15 -18 -31 -20 -27 -3 1 6 -6 14 -15 16 -16
3 -18 -7 -18 -97z"/>
<path d="M2045 368 c-33 -19 -44 -41 -45 -89 0 -36 5 -50 25 -69 32 -30 85
-32 115 -5 l21 19 -7 -29 c-4 -17 -11 -36 -17 -43 -13 -17 -82 -15 -97 2 -12
15 -40 11 -40 -5 0 -5 15 -18 33 -30 40 -25 99 -20 133 12 23 21 24 29 24 136
0 104 -2 114 -17 111 -10 -2 -17 -10 -15 -16 3 -16 -9 -15 -32 3 -23 18 -53
19 -81 3z m83 -34 c26 -18 31 -84 7 -104 -19 -16 -61 -16 -80 0 -24 20 -19 86
7 104 12 9 27 16 33 16 6 0 21 -7 33 -16z"/>
<path d="M2247 374 c-4 -4 -7 -49 -7 -101 0 -76 3 -93 15 -93 8 0 18 0 21 0 3
0 6 44 6 98 0 75 -3 98 -14 100 -8 1 -17 0 -21 -4z"/>
<path d="M2347 373 c-4 -3 -7 -48 -7 -100 0 -86 1 -93 20 -93 18 0 20 7 20 65
0 52 4 69 20 85 48 48 80 14 80 -85 0 -68 1 -73 20 -68 18 5 20 14 20 80 0 65
-3 77 -25 98 -28 29 -61 32 -93 9 -20 -14 -22 -14 -22 0 0 16 -21 22 -33 9z"/>
<path d="M2608 365 c-31 -17 -53 -74 -43 -113 9 -36 41 -70 75 -77 34 -7 100
18 100 38 0 20 -28 29 -37 12 -15 -25 -59 -29 -82 -6 -40 40 -29 51 55 51 l77
0 -7 33 c-12 64 -78 94 -138 62z m84 -32 c31 -28 21 -38 -37 -38 -60 0 -65 5
-35 35 24 24 47 25 72 3z"/>
</g>
</svg>
